<svg width="54" height="56" viewBox="0 0 54 56" fill="none" xmlns="http://www.w3.org/2000/svg">
<path d="M29.8772 52.0512C29.684 52.0515 29.4966 51.9856 29.3462 51.8644C29.1958 51.7432 29.0915 51.574 29.0508 51.3852C29.0102 51.1963 29.0355 50.9993 29.1226 50.8269C29.2097 50.6545 29.3534 50.5172 29.5296 50.4379C33.9643 48.4391 37.6549 45.6876 40.5008 42.262C40.5716 42.1767 40.6585 42.1061 40.7565 42.0544C40.8545 42.0026 40.9617 41.9707 41.0721 41.9604C41.1824 41.9501 41.2937 41.9616 41.3996 41.9943C41.5055 42.0271 41.6039 42.0803 41.6893 42.151C41.7746 42.2218 41.8451 42.3087 41.8969 42.4067C41.9486 42.5047 41.9806 42.6119 41.9909 42.7223C42.0012 42.8326 41.9896 42.9439 41.9569 43.0498C41.9242 43.1557 41.871 43.2542 41.8002 43.3395C38.788 46.9659 34.8941 49.8709 30.224 51.9761C30.115 52.0255 29.9968 52.0511 29.8772 52.0512ZM49.1991 18.1156C49.0882 18.1086 48.977 18.1236 48.872 18.1598C48.7669 18.1959 48.6701 18.2524 48.587 18.3262C48.5038 18.3999 48.4361 18.4893 48.3877 18.5892C48.3392 18.6892 48.311 18.7978 48.3047 18.9087C48.0178 24.1484 47.2078 28.6709 45.8409 32.6112C46.4062 32.7378 46.9294 32.9571 47.4019 33.2609C48.8363 29.1518 49.6969 24.4437 49.9922 19.0015C49.9983 18.8912 49.9827 18.7808 49.9462 18.6766C49.9096 18.5724 49.8529 18.4764 49.7792 18.3941C49.7056 18.3119 49.6164 18.2449 49.5169 18.1971C49.4173 18.1493 49.3093 18.1216 49.1991 18.1156ZM43.1747 7.67837C38.8716 7.02025 34.0791 5.704 30.0206 4.0165C29.9193 3.97376 29.8104 3.95142 29.7004 3.95077C29.5904 3.95012 29.4814 3.97116 29.3795 4.01269C29.2776 4.05423 29.1849 4.11544 29.1067 4.19282C29.0285 4.27021 28.9663 4.36225 28.9237 4.46368C28.7381 4.894 28.9406 5.39181 29.3709 5.569C33.5813 7.324 38.5762 8.69931 43.0566 9.35743C43.0003 8.7951 43.0402 8.22729 43.1747 7.67837ZM48.0938 5.48462C46.2324 5.48462 44.7188 6.99831 44.7188 8.85962C44.7188 10.7209 46.2324 12.2346 48.0938 12.2346C49.9551 12.2346 51.4688 10.7209 51.4688 8.85962C51.4688 6.99831 49.9551 5.48462 48.0938 5.48462ZM44.7188 34.1721C42.8574 34.1721 41.3438 35.6858 41.3438 37.5471C41.3438 39.4084 42.8574 40.9221 44.7188 40.9221C46.5801 40.9221 48.0938 39.4084 48.0938 37.5471C48.0938 35.6858 46.5801 34.1721 44.7188 34.1721ZM24.1228 52.0512C24.316 52.0515 24.5034 51.9856 24.6538 51.8644C24.8042 51.7432 24.9085 51.574 24.9492 51.3852C24.9899 51.1963 24.9645 50.9993 24.8774 50.8269C24.7903 50.6545 24.6466 50.5172 24.4704 50.4379C20.0357 48.4391 16.3451 45.6876 13.5 42.262C13.4293 42.1767 13.3424 42.1061 13.2444 42.0544C13.1464 42.0026 13.0391 41.9707 12.9288 41.9604C12.8184 41.9501 12.7071 41.9616 12.6012 41.9943C12.4953 42.0271 12.3969 42.0803 12.3116 42.151C12.2263 42.2218 12.1557 42.3087 12.104 42.4067C12.0522 42.5047 12.0203 42.6119 12.01 42.7223C11.9892 42.9451 12.0577 43.1672 12.2006 43.3395C15.212 46.9651 19.1067 49.8709 23.7769 51.9761C23.8891 52.0267 24.0072 52.0512 24.1228 52.0512ZM4.00781 19.0015C4.30313 24.4437 5.16375 29.1518 6.59812 33.2609C7.07063 32.9571 7.59375 32.7378 8.15906 32.6112C6.79219 28.6709 5.98219 24.1484 5.69531 18.9087C5.68897 18.7978 5.66077 18.6892 5.61232 18.5892C5.56388 18.4893 5.49615 18.3999 5.41304 18.3262C5.32992 18.2524 5.23306 18.1959 5.12801 18.1598C5.02296 18.1236 4.91181 18.1086 4.80094 18.1156C4.33688 18.1409 3.9825 18.5374 4.00781 19.0015ZM10.9688 8.85962C10.9688 9.02837 10.9603 9.19712 10.9434 9.35743C15.4237 8.69931 20.4188 7.324 24.6291 5.569C25.0594 5.39181 25.2619 4.894 25.0763 4.46368C24.8991 4.04181 24.4013 3.83087 23.9794 4.0165C19.9209 5.704 15.1284 7.02025 10.8253 7.67837C10.9181 8.05806 10.9688 8.45462 10.9688 8.85962ZM2.53125 8.85962C2.53125 10.7209 4.04494 12.2346 5.90625 12.2346C7.76756 12.2346 9.28125 10.7209 9.28125 8.85962C9.28125 6.99831 7.76756 5.48462 5.90625 5.48462C4.04494 5.48462 2.53125 6.99831 2.53125 8.85962ZM5.90625 37.5471C5.90625 39.4084 7.41994 40.9221 9.28125 40.9221C11.1426 40.9221 12.6562 39.4084 12.6562 37.5471C12.6562 35.6858 11.1426 34.1721 9.28125 34.1721C7.41994 34.1721 5.90625 35.6858 5.90625 37.5471ZM27.0068 20.6848C26.2376 20.6778 25.4895 20.9356 24.888 21.4149C24.2865 21.8943 23.8683 22.566 23.7035 23.3173C23.409 24.7128 23.9802 26.1126 25.1606 26.8838C25.3167 26.9859 25.4346 27.1368 25.4958 27.313C25.557 27.4891 25.5581 27.6806 25.499 27.8575L23.9524 32.4981H30.0485L28.501 27.8575C28.442 27.6805 28.4432 27.489 28.5046 27.3128C28.566 27.1366 28.684 26.9858 28.8402 26.8838C29.3112 26.5786 29.6983 26.1604 29.9664 25.6673C30.2345 25.1742 30.3749 24.6219 30.375 24.0606C30.375 23.0397 29.9194 22.0846 29.1263 21.4399C28.5287 20.9495 27.7798 20.6825 27.0068 20.6848ZM44.1821 16.0247C43.8792 27.6407 41.7319 40.4032 28.1003 46.9878C27.7552 47.1541 27.378 47.2368 27 47.2368C26.622 47.2368 26.2448 47.1541 25.9006 46.9878C12.2681 40.4015 10.1208 27.6398 9.81787 16.0239C9.80262 15.415 10.0084 14.8212 10.3971 14.3523C10.7858 13.8834 11.3312 13.5711 11.9323 13.4732C16.6236 12.7265 21.7603 11.2736 26.0272 9.48653C26.3352 9.35669 26.6661 9.28981 27.0004 9.28981C27.3347 9.28981 27.6656 9.35669 27.9737 9.48653C32.2397 11.2736 37.3773 12.7265 42.0677 13.4732C42.6689 13.5713 43.2143 13.8838 43.603 14.3528C43.9917 14.8219 44.1974 15.4158 44.1821 16.0247ZM30.294 27.8988C30.8491 27.4252 31.2947 26.8367 31.6 26.1741C31.9053 25.5114 32.0631 24.7903 32.0625 24.0606C32.0638 23.3074 31.8963 22.5634 31.5725 21.8833C31.2487 21.2032 30.7766 20.6043 30.1911 20.1304C29.0014 19.1627 27.443 18.7931 25.9175 19.1112C24.0106 19.5094 22.4564 21.0594 22.0531 22.9671C21.6599 24.8293 22.3028 26.6982 23.7068 27.8988L22.3509 31.964C22.1805 32.477 22.2666 33.0457 22.583 33.4845C22.8994 33.9232 23.4107 34.1856 23.9515 34.1856H30.0485C30.5893 34.1856 31.1015 33.9241 31.4179 33.4845C31.7343 33.0457 31.8203 32.477 31.6491 31.964L30.294 27.8988Z" fill="white"/>
</svg>
