<svg width="46" height="54" viewBox="0 0 46 54" fill="none" xmlns="http://www.w3.org/2000/svg">
<g clip-path="url(#clip0_833_1703)">
<path d="M12.1732 25.3561C12.1732 31.742 17.3499 36.9189 23.736 36.9189C30.1221 36.9189 35.2987 31.742 35.2987 25.3561C35.2987 18.9701 30.1219 13.7933 23.736 13.7933C17.3531 13.8005 12.1803 18.9732 12.1732 25.3561ZM23.736 26.0868C21.8172 26.0975 20.1913 24.6765 19.9457 22.7732C19.7003 20.8706 20.9121 19.0828 22.771 18.6066V17.6291C22.771 17.1864 23.1296 16.8277 23.5723 16.8277C24.015 16.8277 24.3736 17.1864 24.3736 17.6291V18.5578C26.1918 18.8655 27.5189 20.4462 27.5073 22.2908C27.5073 22.5008 27.4239 22.7023 27.2754 22.8508C27.1269 22.9993 26.9254 23.0827 26.7154 23.0827C26.5054 23.0827 26.3039 22.9993 26.1554 22.8508C26.0069 22.7023 25.9235 22.5008 25.9235 22.2908C25.9221 21.0802 24.9401 20.1001 23.7297 20.1015C22.5192 20.1027 21.539 21.0852 21.5408 22.2957C21.5422 23.5057 22.5246 24.4859 23.7351 24.4841C25.6976 24.4952 27.3276 26.0014 27.4935 27.9573C27.6595 29.9127 26.3063 31.6719 24.3736 32.0135V32.9686C24.3736 33.4113 24.015 33.77 23.5723 33.77C23.1296 33.77 22.771 33.4113 22.771 32.9686V31.9644C21.0963 31.522 19.9261 30.0125 19.9148 28.2806C19.9199 28.0689 20.0075 27.8676 20.159 27.7196C20.3105 27.5717 20.5138 27.4889 20.7255 27.4889C20.9373 27.4889 21.1406 27.5717 21.2921 27.7196C21.4436 27.8676 21.5312 28.0689 21.5362 28.2806C21.539 29.3998 22.3823 30.3384 23.4949 30.4605C23.5363 30.4539 23.5782 30.4505 23.6201 30.4502C23.6805 30.4502 23.7403 30.4573 23.7994 30.4708C25.0014 30.4413 25.9552 29.4495 25.9378 28.2475C25.9204 27.045 24.938 26.0814 23.736 26.0868ZM42.2929 42.432C42.2867 42.4353 42.2804 42.4384 42.2741 42.4414L34.8355 45.9558C34.9156 46.3675 34.9504 46.7865 34.9393 47.2059C34.9337 47.4145 34.8469 47.6127 34.6974 47.7583C34.5479 47.9039 34.3475 47.9854 34.1389 47.9854H34.116L23.2293 47.6857C23.0197 47.6758 22.8223 47.5841 22.6795 47.4302C22.5367 47.2764 22.4599 47.0727 22.4657 46.8629C22.4714 46.6531 22.5592 46.4539 22.7102 46.3081C22.8612 46.1623 23.0633 46.0815 23.2732 46.0831L33.2803 46.3586C32.9484 44.4192 31.2949 42.9829 29.3282 42.9256L22.7057 42.7436C21.3979 42.7061 20.1154 42.3748 18.953 41.7742L18.2792 41.4254C14.9698 39.7011 10.9819 39.9256 7.887 42.0107L7.62188 51.6449L8.75987 51.0355C9.89094 50.4272 11.2141 50.2825 12.45 50.6317L23.6891 53.7864C25.8553 54.2302 28.1063 53.9786 30.121 53.0675L45.6918 42.9955C45.2589 42.5522 44.6959 42.2585 44.0846 42.1572C43.4733 42.0558 42.8457 42.1521 42.2929 42.432ZM0.308105 53.3183L0.702813 38.9843L6.363 39.1403L5.96807 53.4742L0.308105 53.3183ZM24.4881 9.50138V0.801321C24.4881 0.358648 24.1294 0 23.6868 0C23.2441 0 22.8854 0.358648 22.8854 0.801321V9.50138C22.8854 9.94405 23.2441 10.3027 23.6868 10.3027C24.1294 10.3027 24.4881 9.94405 24.4881 9.50138ZM31.3566 9.50138V5.3803C31.3566 4.93763 30.9979 4.57898 30.5552 4.57898C30.1126 4.57898 29.7539 4.93763 29.7539 5.3803V9.50138C29.7539 9.94405 30.1126 10.3027 30.5552 10.3027C30.9979 10.3027 31.3566 9.94405 31.3566 9.50138ZM17.6196 9.50138V5.3803C17.6196 4.93763 17.261 4.57898 16.8183 4.57898C16.3756 4.57898 16.017 4.93763 16.017 5.3803V9.50138C16.017 9.94405 16.3756 10.3027 16.8183 10.3027C17.261 10.3027 17.6196 9.94405 17.6196 9.50138Z" fill="white"/>
<line x1="12.625" y1="26.375" x2="35.375" y2="26.375" stroke="url(#paint0_linear_833_1703)" stroke-width="1.25" stroke-linecap="round"/>
</g>
<defs>
<linearGradient id="paint0_linear_833_1703" x1="12" y1="27.5" x2="36" y2="27.5" gradientUnits="userSpaceOnUse">
<stop stop-color="#01B0B9"/>
<stop offset="1" stop-color="#01A3BC"/>
</linearGradient>
<clipPath id="clip0_833_1703">
<rect width="45.3837" height="54" fill="white" transform="translate(0.308105)"/>
</clipPath>
</defs>
</svg>
