<svg width="54" height="55" viewBox="0 0 54 55" fill="none" xmlns="http://www.w3.org/2000/svg">
<path fill-rule="evenodd" clip-rule="evenodd" d="M38.2408 33.4972L35.1949 41.6584C34.7755 42.7822 34.1203 43.8156 33.3163 42.9642C33.0771 42.7108 32.8738 42.371 32.9118 41.9977L33.5834 35.3743C33.5851 35.3556 33.5918 35.3377 33.6029 35.3226C33.614 35.3074 33.629 35.2956 33.6464 35.2884L38.1005 33.3638C38.1194 33.3554 38.1404 33.3528 38.1608 33.3564C38.1811 33.3601 38.1999 33.3697 38.2148 33.3841C38.246 33.4138 38.2558 33.4568 38.2408 33.4972ZM32.4649 50.2491V52.5178C32.4654 52.572 32.4872 52.6239 32.5256 52.6622C32.5639 52.7005 32.6157 52.7223 32.6699 52.7229H35.1998C35.254 52.7223 35.3058 52.7005 35.3442 52.6621C35.3825 52.6238 35.4043 52.572 35.4049 52.5178V50.2491C35.4049 50.2212 35.3938 50.1945 35.3741 50.1748C35.3543 50.155 35.3276 50.1439 35.2997 50.1439H32.5702C32.5422 50.1439 32.5155 50.155 32.4958 50.1747C32.476 50.1944 32.4649 50.2212 32.4649 50.2491ZM18.594 50.2491V52.5178C18.594 52.6293 18.6877 52.7229 18.7991 52.7229H21.329C21.3832 52.7223 21.435 52.7005 21.4733 52.6621C21.5116 52.6238 21.5334 52.572 21.5341 52.5178V50.2491C21.534 50.2212 21.5229 50.1945 21.5032 50.1748C21.4835 50.155 21.4568 50.1439 21.4289 50.1439H18.6993C18.6714 50.1439 18.6446 50.155 18.6249 50.1747C18.6052 50.1944 18.594 50.2212 18.594 50.2491ZM52.7428 16.43C51.3258 13.0154 43.5152 14.1737 39.6383 14.964C39.6172 14.9681 39.5979 14.9786 39.5831 14.9942C39.5682 15.0097 39.5586 15.0295 39.5555 15.0508C39.5519 15.072 39.5551 15.0938 39.5645 15.1132C39.5739 15.1325 39.5891 15.1485 39.608 15.1588C40.0317 15.3969 40.4068 15.7126 40.714 16.0892C40.7258 16.1041 40.7414 16.1154 40.7592 16.1219C40.777 16.1284 40.7963 16.1299 40.8149 16.1262C43.3069 15.6601 45.4953 15.4402 47.2611 15.4833C52.1514 15.6027 52.88 17.4874 49.502 21.0215C48.5781 21.988 47.3815 23.0176 45.9529 24.0797C45.9378 24.0906 45.926 24.1054 45.9186 24.1224C45.9113 24.1395 45.9087 24.1583 45.9112 24.1767C45.9131 24.1952 45.9201 24.2128 45.9313 24.2277C45.9424 24.2425 45.9575 24.254 45.9747 24.261L47.202 24.7797C47.2379 24.7948 47.2762 24.7899 47.3071 24.7662C48.5647 23.7989 49.6357 22.8568 50.4908 21.9622C52.5053 19.8549 53.3657 17.9306 52.7428 16.43ZM44.7554 24.9353C44.2721 24.7905 43.7831 24.725 43.2944 24.739C42.1563 24.7717 41.4243 25.1861 40.4681 25.6675C40.4521 25.6759 40.4342 25.6799 40.4162 25.6791C40.3983 25.6783 40.3808 25.6728 40.3656 25.6631C40.3501 25.6539 40.3374 25.6407 40.3286 25.625C40.3198 25.6092 40.3153 25.5915 40.3156 25.5735V19.4588C40.3156 17.3442 38.588 15.6166 36.4734 15.6166H17.5255C15.411 15.6166 13.6834 17.3442 13.6834 19.4588V37.9207C13.6836 37.9451 13.6751 37.9689 13.6596 37.9878C13.644 38.0066 13.6224 38.0195 13.5983 38.024C11.944 38.3462 10.4146 38.5635 9.04343 38.6708C5.43979 38.953 3.03355 38.5177 2.51753 37.2744C2.08942 36.243 3.00655 34.6516 4.93694 32.7617C6.69864 31.0368 9.27163 29.1358 12.4391 27.2229C12.4548 27.2138 12.4677 27.2006 12.4767 27.1848C12.4856 27.169 12.4902 27.151 12.4899 27.1329V25.7895C12.4899 25.7506 12.4706 25.7173 12.4369 25.6981C12.4032 25.6789 12.3646 25.6792 12.3312 25.699C8.79805 27.787 5.92504 29.8848 3.98017 31.789C1.63355 34.0866 0.588757 36.1903 1.25609 37.7983C2.02796 39.6582 4.92636 40.3643 9.14495 40.0339C12.3866 39.78 16.9003 38.6355 21.1143 37.3266C21.1995 37.3001 21.2864 37.2787 21.3696 37.247C22.7156 36.7316 19.9145 33.1673 19.2124 32.0307C19.1939 32.0006 19.1913 31.9667 19.2052 31.9343C19.219 31.9019 19.2451 31.8802 19.2796 31.8727C19.3148 31.865 19.3524 31.8682 19.3966 31.8913L23.5224 34.0494C24.4394 34.5289 25.3833 34.8352 26.3058 34.3687L41.9245 26.4686C42.8407 26.0051 43.8018 25.9779 44.7589 26.3867L47.2308 27.4426C47.448 27.5354 47.4467 27.8393 47.2318 27.9289C36.3917 32.6128 25.4468 38.3778 13.7689 40.6058C13.7448 40.6102 13.723 40.623 13.7073 40.6418C13.6917 40.6607 13.6832 40.6845 13.6833 40.709V45.2912C13.6833 47.4058 15.4109 49.1334 17.5254 49.1334H36.4732C38.5877 49.1334 40.3154 47.4059 40.3154 45.2912V32.476C40.3154 32.4331 40.3395 32.3964 40.3789 32.3794L47.7716 29.1852C49.0839 28.6196 49.0811 26.7487 47.7652 26.1867L46.2633 25.5452L46.2614 25.5444L44.7644 24.9387C44.7615 24.9374 44.7584 24.9363 44.7554 24.9353ZM31.3974 14.3254V7.42222C31.3974 7.39317 31.4077 7.36822 31.4284 7.3477C31.4381 7.33775 31.4497 7.3299 31.4625 7.32462C31.4753 7.31935 31.4891 7.31676 31.503 7.31703C31.992 7.31865 32.3994 7.31735 32.815 6.90177C32.9465 6.77068 33.0509 6.61491 33.1221 6.44338C33.1933 6.27185 33.23 6.08795 33.2299 5.90223V3.69168C33.2299 2.91225 32.5948 2.2771 31.8154 2.2771H22.1837C21.4042 2.2771 20.7691 2.91225 20.7691 3.69168V5.90223C20.7691 6.68156 21.4042 7.3167 22.1837 7.3167H22.4965C22.5544 7.3167 22.6016 7.36401 22.6016 7.4219V14.3253C22.6016 14.3833 22.6489 14.4304 22.7068 14.4304H23.8647C23.8926 14.4304 23.9193 14.4193 23.939 14.3996C23.9587 14.3799 23.9698 14.3531 23.9699 14.3253V7.4219C23.9699 7.3639 24.0172 7.3167 24.0751 7.3167H29.9236C29.9816 7.3167 30.0288 7.36401 30.0288 7.4219V14.3253C30.0288 14.3833 30.0761 14.4304 30.134 14.4304H31.2919C31.3057 14.4305 31.3194 14.4278 31.3322 14.4225C31.345 14.4172 31.3566 14.4095 31.3664 14.3998C31.3762 14.39 31.384 14.3784 31.3893 14.3656C31.3946 14.3529 31.3974 14.3392 31.3974 14.3254ZM24.0561 27.2867C24.0546 27.2856 24.0531 27.2846 24.0515 27.2836C23.0785 26.6652 23.494 25.9452 24.6404 26.2662L24.6442 26.2671L34.2236 28.5633C34.2675 28.5738 34.2986 28.609 34.3037 28.6538C34.3087 28.6987 34.2864 28.7399 34.2459 28.7599L29.5271 31.105C29.5102 31.1137 29.4911 31.1175 29.4721 31.1161C29.453 31.1146 29.4348 31.1078 29.4194 31.0966L24.0561 27.2867Z" fill="white"/>
</svg>
