<svg width="54" height="56" viewBox="0 0 54 56" fill="none" xmlns="http://www.w3.org/2000/svg">
<path fill-rule="evenodd" clip-rule="evenodd" d="M44.3758 37.2708L37.2594 26.1155C36.7412 26.1725 36.2189 26.1853 35.6985 26.1536C34.423 26.084 33.5826 25.6722 32.9074 25.3421C31.6895 24.7457 30.8085 24.3133 27.3205 26.3241C23.1123 29.4277 21.4681 32.6845 21.6448 34.0098C21.6925 34.3673 21.8519 34.4749 22.0015 34.5324C22.9228 34.8887 25.4967 34.0402 29.7179 30.4793C31.4692 29.0019 35.56 31.7058 41.1482 35.6872C42.2134 36.4454 43.1333 37.1016 43.745 37.4818C43.8147 37.5263 43.8821 37.5708 43.9488 37.6154C44.1172 37.5375 44.2637 37.4192 44.3754 37.271L44.3758 37.2708ZM40.2662 36.9253C41.3526 37.6988 42.29 38.367 42.9367 38.77C43.9404 39.4054 44.5233 40.0778 44.6688 40.7676C44.7896 41.3401 44.6256 41.9648 44.1672 42.6753C43.4088 43.3248 42.4241 43.515 41.1658 43.2586L32.7785 37.5915C32.6958 37.5345 32.6027 37.4944 32.5045 37.4737C32.4063 37.4529 32.305 37.4517 32.2064 37.4703C32.1077 37.4889 32.0137 37.5269 31.9298 37.582C31.846 37.6371 31.7738 37.7083 31.7176 37.7915C31.6613 37.8746 31.6221 37.9681 31.6022 38.0664C31.5823 38.1648 31.5821 38.2662 31.6016 38.3647C31.6211 38.4631 31.6598 38.5568 31.7157 38.6402C31.7716 38.7235 31.8434 38.7951 31.927 38.8505L40.0621 44.3484C39.9621 45.0426 39.7337 45.5297 39.38 45.7976C38.9711 46.1072 38.323 46.1779 37.458 46.0127L30.9911 41.794C30.8223 41.6837 30.6166 41.6451 30.4192 41.6865C30.2219 41.728 30.0491 41.8461 29.9389 42.015C29.8287 42.1838 29.79 42.3895 29.8315 42.5868C29.8729 42.7842 29.9911 42.957 30.1599 43.0672L36.2929 47.0691C36.021 47.9523 35.6324 48.5246 35.1328 48.7725C34.5897 49.0429 33.8277 48.9658 32.8681 48.5466L29.0512 45.8329C28.8868 45.716 28.6828 45.6693 28.4839 45.7029C28.2851 45.7365 28.1077 45.8477 27.9908 46.0121C27.874 46.1765 27.8272 46.3805 27.8608 46.5794C27.8944 46.7782 28.0057 46.9556 28.17 47.0725L31.5932 49.5052C31.2826 50.3004 30.8444 50.8012 30.2854 50.9935C29.312 51.3302 27.8323 50.8447 25.9865 49.5964C26.4746 48.9214 27.6469 47.1099 27.2838 45.7129C27.0219 44.7058 26.2053 43.9649 24.8521 43.5033C25.2017 42.1454 25.0221 40.9787 24.324 40.1617C23.6421 39.3632 22.5488 39.0048 21.1928 39.1211C21.0167 37.9489 20.3527 37.0733 19.2943 36.6551C18.0498 36.164 16.5085 36.4107 15.3498 37.2091C14.8739 36.4783 14.135 35.9586 13.2863 35.7578C12.75 35.6298 12.189 35.6505 11.6636 35.8176C11.1382 35.9847 10.6683 36.2919 10.3045 36.7061L10.2357 36.7822C10.1183 36.6773 10.0098 36.5629 9.9115 36.4399L16.7459 25.7277C18.6272 26.3752 20.548 25.8993 22.2619 25.4735C24.2698 24.9749 25.2677 24.8184 25.8881 25.5039C22.1742 28.399 19.8319 31.9154 20.1379 34.2109C20.2495 35.0484 20.717 35.6663 21.454 35.9511C21.769 36.0678 22.103 36.1251 22.4389 36.1198C24.3534 36.1198 27.2271 34.5707 30.6992 31.6421C30.7047 31.6376 31.2702 31.2096 34.2455 32.9109C36.2 34.0288 38.4546 35.6353 40.2665 36.9258L40.2662 36.9253ZM15.163 46.1691L19.7192 39.7479C19.716 38.8907 19.3866 38.3269 18.737 38.0709C17.8187 37.708 16.5327 38.047 15.7881 38.8236C15.5126 39.7265 14.7545 41.4862 12.6859 43.9588C12.7313 44.7018 12.939 45.2547 13.3081 45.6024C13.7018 45.9739 14.3254 46.1641 15.1638 46.1694L15.163 46.1691ZM11.5045 43.0003C13.3437 40.8066 14.0395 39.2861 14.3017 38.4791C14.1975 38.1758 14.0188 37.9035 13.7821 37.6871C13.5454 37.4707 13.2582 37.3172 12.9468 37.2406C12.6762 37.1734 12.3923 37.1824 12.1265 37.2665C11.8608 37.3507 11.6235 37.5068 11.4409 37.7175C11.2553 37.9261 11.0579 38.1357 10.8672 38.3377C9.90243 39.3632 8.99128 40.3323 9.09243 41.5067C9.14748 42.1464 9.33659 42.5896 9.65447 42.8232C10.0259 43.0948 10.6629 43.1545 11.5045 43.0003ZM20.9162 40.6886L16.3647 47.1034C16.4742 47.627 16.6832 47.993 17.0022 48.2135C17.4727 48.5395 18.2672 48.597 19.3082 48.3842L20.5264 46.9056L23.2183 43.6369C23.6134 42.5539 23.5972 41.6511 23.1681 41.1492C22.7601 40.6723 21.9657 40.5116 20.9162 40.6886ZM24.1647 44.8797L21.7006 47.8714C21.3241 48.3299 20.9469 48.788 20.5692 49.2455C20.8953 50.1701 21.5195 50.5568 22.6003 50.5231C22.9948 50.5112 23.8607 49.9008 24.6879 48.7959C25.5681 47.6194 25.9241 46.5265 25.8121 46.0953C25.6762 45.5739 25.1225 45.1654 24.1647 44.8797ZM7.20696 37.8522L16.098 23.9146C16.1862 23.7742 16.2156 23.6048 16.1799 23.4429C16.1441 23.281 16.046 23.1398 15.9068 23.0497L11.5417 20.2654C11.4724 20.221 11.3951 20.1907 11.3141 20.1763C11.233 20.1619 11.15 20.1636 11.0696 20.1814C10.9893 20.1991 10.9132 20.2326 10.8458 20.2798C10.7784 20.327 10.721 20.387 10.6769 20.4565L1.78576 34.3944C1.69661 34.5345 1.66668 34.7042 1.70255 34.8664C1.73841 35.0285 1.83715 35.1698 1.97708 35.2592L6.34201 38.0436C6.48242 38.1316 6.6518 38.1609 6.81359 38.1251C6.97539 38.0893 7.11664 37.9914 7.20686 37.8524L7.20696 37.8522ZM13.1281 24.033C13.0186 24.2024 12.8463 24.3214 12.6491 24.3637C12.4519 24.4061 12.246 24.3684 12.0766 24.2589C11.9072 24.1494 11.7883 23.9771 11.7459 23.7799C11.7036 23.5827 11.7413 23.3768 11.8508 23.2074L11.9949 22.9847C12.0489 22.9002 12.119 22.8272 12.2012 22.7699C12.2834 22.7126 12.3762 22.6721 12.4741 22.6508C12.572 22.6295 12.6732 22.6277 12.7718 22.6457C12.8704 22.6636 12.9645 22.7008 13.0487 22.7552C13.1329 22.8096 13.2055 22.8801 13.2623 22.9627C13.3191 23.0452 13.359 23.1382 13.3798 23.2363C13.4006 23.3343 13.4018 23.4355 13.3833 23.534C13.3648 23.6325 13.327 23.7264 13.2722 23.8103L13.1281 24.033ZM21.3953 20.4286L26.1239 17.9607C26.307 17.8638 26.5109 17.8132 26.7179 17.8132C26.925 17.8132 27.1289 17.8638 27.3119 17.9607L32.0405 20.4286L30.9273 15.4684C30.8786 15.255 30.8857 15.0327 30.9478 14.8228C31.01 14.613 31.1252 14.4227 31.2822 14.2702L34.9086 10.7201L30.0657 10.2181C29.8517 10.1963 29.6466 10.1208 29.4694 9.99873C29.2923 9.87664 29.1488 9.71183 29.0522 9.51957L26.7178 4.90247L24.3836 9.51968C24.287 9.71195 24.1435 9.87676 23.9663 9.99884C23.7891 10.1209 23.584 10.1963 23.3699 10.2181L18.5273 10.7201L22.1539 14.2702C22.3109 14.4227 22.426 14.613 22.4881 14.8229C22.5502 15.0327 22.5572 15.2551 22.5085 15.4684L21.3953 20.4286ZM37.9022 24.2959C37.813 24.1556 37.7831 23.9858 37.8189 23.8235C37.8548 23.6612 37.9534 23.5198 38.0934 23.4302L42.4583 20.6458C42.5984 20.5567 42.7682 20.5268 42.9303 20.5627C43.0924 20.5986 43.2337 20.6972 43.3232 20.8371L52.2142 34.7746C52.3034 34.9147 52.3334 35.0844 52.2975 35.2465C52.2617 35.4087 52.163 35.55 52.0231 35.6394L47.6583 38.4247C47.5179 38.5126 47.3486 38.5419 47.1868 38.5062C47.025 38.4704 46.8838 38.3725 46.7935 38.2335L37.9025 24.2959H37.9022ZM41.2792 24.3818C41.1519 24.3819 41.0267 24.35 40.915 24.2891C40.8032 24.2281 40.7086 24.1401 40.6398 24.033L40.4956 23.8103C40.3862 23.6409 40.3485 23.435 40.3908 23.2378C40.4332 23.0406 40.5522 22.8683 40.7216 22.7589C40.8909 22.6494 41.0969 22.6117 41.2941 22.6541C41.4912 22.6964 41.6635 22.8154 41.773 22.9848L41.917 23.2074C41.991 23.3223 42.0327 23.455 42.0378 23.5915C42.0428 23.728 42.0111 23.8634 41.9459 23.9835C41.8807 24.1036 41.7844 24.2039 41.6671 24.274C41.5498 24.344 41.4158 24.3813 41.2792 24.3818Z" fill="white"/>
</svg>
