<svg width="58" height="55" viewBox="0 0 58 55" fill="none" xmlns="http://www.w3.org/2000/svg">
<g clip-path="url(#clip0_852_1807)">
<path d="M54.7597 18.9811C54.2113 17.1533 52.5733 15.6219 51.0989 15.5597C50.4648 15.5351 49.8298 15.5637 49.2004 15.6451C46.6207 6.90176 38.5418 0.504028 29 0.504028C19.4583 0.504028 11.3794 6.90176 8.79642 15.6451C8.16711 15.5637 7.53207 15.5351 6.89799 15.5597C5.42142 15.6219 3.7856 17.1533 3.23717 18.9811C2.76256 20.0579 1.85131 26.501 2.02111 28.6262C1.85131 30.7514 2.75939 37.1945 3.24033 38.2713C3.79299 40.0991 5.4267 41.6295 6.90115 41.6927C8.12258 41.7307 9.34294 41.5885 10.5229 41.2709C11.7029 40.9706 12.8427 40.5301 13.918 39.9588C15.1942 39.2438 16.0579 37.5447 16.0569 36.085C15.9926 35.179 15.7721 30.2262 15.8291 28.6262C15.7721 27.0263 15.9926 22.0734 16.0569 21.1675C16.0569 19.7078 15.1942 18.0034 13.918 17.2936L13.6311 17.1459C15.5738 10.4634 21.7279 5.56653 29 5.56653C36.2721 5.56653 42.4262 10.4634 44.3679 17.1459L44.081 17.2936C42.8048 18.0045 41.941 19.7078 41.9421 21.1685C42.0064 22.0745 42.2269 27.0273 42.1699 28.6273C42.2269 30.2272 42.0064 35.18 41.9421 36.086C41.9421 37.5457 42.8048 39.2448 44.081 39.9599L44.3194 40.0833C43.3086 42.1862 41.8363 44.0338 40.0122 45.4885C38.1881 46.9432 36.0591 47.9675 33.7841 48.4849C33.3165 47.7198 32.6026 47.1364 31.7596 46.8308C30.9166 46.5251 29.9947 46.5153 29.1454 46.803C28.2961 47.0906 27.5699 47.6586 27.0862 48.4137C26.6024 49.1687 26.3899 50.0658 26.4836 50.9576C26.5772 51.8494 26.9714 52.6828 27.6014 53.3209C28.2315 53.9589 29.0598 54.3637 29.9503 54.4687C30.8408 54.5737 31.7406 54.3726 32.5017 53.8985C33.2628 53.4244 33.84 52.7055 34.1385 51.8599C40.0711 50.6586 45.0017 46.6477 47.4866 41.2761C48.6637 41.5914 49.8809 41.7314 51.0989 41.6917C52.5754 41.6295 54.2113 40.098 54.7597 38.2703C55.2375 37.1934 56.1487 30.7504 55.9789 28.6252C56.1487 26.501 55.2364 20.0579 54.7597 18.9811Z" fill="white"/>
<path d="M26.9465 28.0884C27.3151 27.7242 27.6104 27.2928 27.8167 26.8175C28.0128 26.3576 28.1106 25.7789 28.1099 25.0814C28.1099 24.1364 27.9014 23.3053 27.4844 22.5882C27.0782 21.8815 26.4843 21.3011 25.7684 20.9112C25.0105 20.5026 24.1603 20.2956 23.2994 20.31C22.2954 20.31 21.4165 20.5023 20.6627 20.8869C19.686 21.3674 18.931 22.2043 18.5533 23.2252C18.4793 23.4275 18.4552 23.6448 18.4831 23.8584C18.511 24.0721 18.5901 24.2758 18.7136 24.4523C18.8372 24.6289 19.0015 24.773 19.1926 24.8724C19.3838 24.9718 19.5961 25.0236 19.8116 25.0234H19.8981C20.1682 25.0199 20.4312 24.9359 20.6534 24.7823C20.8756 24.6286 21.0471 24.4122 21.1458 24.1607C21.1787 24.0827 21.2161 24.0067 21.2576 23.9329C21.4469 23.5969 21.7216 23.3167 22.0538 23.1208C22.4143 22.911 22.8255 22.8045 23.2425 22.8128C23.6367 22.8038 24.0258 22.9038 24.3668 23.1018C24.6816 23.2922 24.9372 23.5665 25.1051 23.8939C25.2861 24.2492 25.377 24.6437 25.3698 25.0424C25.3585 25.3826 25.2644 25.715 25.0956 26.0106C24.9134 26.3566 24.6006 26.7246 24.1569 27.1149L18.7864 31.881C18.6181 32.0304 18.4834 32.2137 18.3913 32.419C18.2991 32.6243 18.2515 32.8467 18.2517 33.0717C18.2509 33.2815 18.2915 33.4893 18.3713 33.6833C18.4512 33.8773 18.5686 34.0536 18.7168 34.202C18.865 34.3504 19.0411 34.468 19.235 34.5481C19.4288 34.6282 19.6366 34.6691 19.8464 34.6685H26.859C27.1907 34.6685 27.5089 34.5368 27.7435 34.3022C27.9781 34.0676 28.1099 33.7494 28.1099 33.4177C28.11 33.2533 28.0777 33.0906 28.0149 32.9387C27.9521 32.7868 27.86 32.6488 27.7439 32.5325C27.6277 32.4163 27.4898 32.324 27.3379 32.2611C27.1861 32.1982 27.0233 32.1658 26.859 32.1658H22.385L25.529 29.4088C26.0901 28.9159 26.5626 28.4758 26.9465 28.0884ZM38.4922 30.01V27.8384C38.4919 27.4805 38.3496 27.1374 38.0964 26.8845C37.8433 26.6315 37.5001 26.4894 37.1422 26.4894C36.7844 26.4894 36.4413 26.6316 36.1884 26.8845C35.9354 27.1375 35.7933 27.4806 35.7933 27.8384V30.01H32.7252L36.2352 22.5713C36.3343 22.361 36.3788 22.1291 36.3643 21.8971C36.3499 21.6651 36.2771 21.4405 36.1526 21.2441C36.0281 21.0478 35.856 20.8861 35.6523 20.774C35.4487 20.662 35.2199 20.6032 34.9875 20.6032C34.7261 20.6033 34.4701 20.6777 34.2493 20.8178C34.0286 20.9578 33.8522 21.1578 33.7408 21.3943L29.8691 29.5987C29.7413 29.8694 29.675 30.1651 29.675 30.4646C29.675 31.0025 29.8887 31.5183 30.269 31.8987C30.6494 32.279 31.1653 32.4927 31.7032 32.4927H35.7954V33.3365C35.7954 33.6942 35.9375 34.0374 36.1905 34.2903C36.4434 34.5433 36.7865 34.6854 37.1443 34.6854C37.5022 34.6849 37.8452 34.5422 38.0979 34.2889C38.3507 34.0356 38.4925 33.6922 38.4922 33.3344V32.4906H38.5017C38.8309 32.4906 39.1467 32.3598 39.3795 32.127C39.6123 31.8942 39.7431 31.5785 39.7431 31.2492C39.7431 30.92 39.6123 30.6043 39.3795 30.3715C39.1467 30.1387 38.8309 30.0079 38.5017 30.0079L38.4922 30.01Z" fill="white"/>
</g>
<defs>
<clipPath id="clip0_852_1807">
<rect width="58" height="53.9918" fill="white" transform="translate(0 0.504028)"/>
</clipPath>
</defs>
</svg>
