<svg width="54" height="55" viewBox="0 0 54 55" fill="none" xmlns="http://www.w3.org/2000/svg">
<g clip-path="url(#clip0_852_1796)">
<path d="M15.9258 9.99219H20.6719V41.7383H33.3281V9.99219H38.0742L27 0.5L15.9258 9.99219ZM44.4023 29.082H47.5664L39.6562 19.5914L36.4922 23.3878V41.7383H44.4023V29.082ZM17.5078 41.7383V23.3878L14.3438 19.5914L6.43359 29.082H9.59766V41.7383H17.5078ZM36.6793 44.9023L41.4246 54.5H54L45.9851 44.9023H36.6793ZM20.8592 44.9023L16.1133 54.5H37.8867L33.1413 44.9023H20.8592ZM17.3212 44.9023H8.01489L0 54.5H12.5756L17.3212 44.9023Z" fill="white"/>
</g>
<defs>
<clipPath id="clip0_852_1796">
<rect width="54" height="54" fill="white" transform="translate(0 0.5)"/>
</clipPath>
</defs>
</svg>
