<svg width="58" height="54" viewBox="0 0 58 54" fill="none" xmlns="http://www.w3.org/2000/svg">
<path d="M24.4327 12.5475L25.7878 16.3106C26.5313 18.3736 27.7208 20.2471 29.2714 21.7977C30.822 23.3483 32.6955 24.5378 34.7585 25.2813L38.5216 26.6364C38.5959 26.6636 38.6601 26.7131 38.7054 26.7779C38.7507 26.8428 38.775 26.9201 38.775 26.9992C38.775 27.0784 38.7507 27.1556 38.7054 27.2205C38.6601 27.2854 38.5959 27.3348 38.5216 27.362L34.7585 28.7171C32.6955 29.4606 30.822 30.6501 29.2714 32.2007C27.7208 33.7513 26.5313 35.6248 25.7878 37.6878L24.4327 41.451C24.4055 41.5253 24.356 41.5894 24.2912 41.6347C24.2263 41.68 24.149 41.7043 24.0699 41.7043C23.9907 41.7043 23.9135 41.68 23.8486 41.6347C23.7837 41.5894 23.7343 41.5253 23.7071 41.451L22.352 37.6878C21.6085 35.6248 20.419 33.7513 18.8684 32.2007C17.3178 30.6501 15.4442 29.4606 13.3813 28.7171L9.61814 27.362C9.54383 27.3348 9.47968 27.2854 9.43437 27.2205C9.38905 27.1556 9.36475 27.0784 9.36475 26.9992C9.36475 26.9201 9.38905 26.8428 9.43437 26.7779C9.47968 26.7131 9.54383 26.6636 9.61814 26.6364L13.3813 25.2813C15.4442 24.5378 17.3178 23.3483 18.8684 21.7977C20.419 20.2471 21.6085 18.3736 22.352 16.3106L23.7071 12.5475C23.7336 12.4724 23.7827 12.4074 23.8477 12.3614C23.9127 12.3155 23.9903 12.2908 24.0699 12.2908C24.1495 12.2908 24.2271 12.3155 24.2921 12.3614C24.3571 12.4074 24.4062 12.4724 24.4327 12.5475ZM41.3718 3.50415L42.0586 5.40933C42.4355 6.45385 43.0379 7.40245 43.8231 8.18763C44.6083 8.97281 45.5569 9.57525 46.6014 9.95208L48.5066 10.6389C48.5443 10.6526 48.5769 10.6777 48.6 10.7106C48.623 10.7435 48.6354 10.7827 48.6354 10.8228C48.6354 10.863 48.623 10.9022 48.6 10.9351C48.5769 10.968 48.5443 10.993 48.5066 11.0068L46.6014 11.6936C45.5569 12.0704 44.6083 12.6729 43.8231 13.458C43.0379 14.2432 42.4355 15.1918 42.0586 16.2363L41.3718 18.1415C41.3581 18.1793 41.3331 18.2119 41.3002 18.2349C41.2673 18.2579 41.2281 18.2703 41.1879 18.2703C41.1477 18.2703 41.1085 18.2579 41.0756 18.2349C41.0427 18.2119 41.0177 18.1793 41.004 18.1415L40.3171 16.2363C39.9403 15.1918 39.3379 14.2432 38.5527 13.458C37.7675 12.6729 36.8189 12.0704 35.7744 11.6936L33.8692 11.0068C33.8315 10.993 33.7989 10.968 33.7758 10.9351C33.7528 10.9022 33.7404 10.863 33.7404 10.8228C33.7404 10.7827 33.7528 10.7435 33.7758 10.7106C33.7989 10.6777 33.8315 10.6526 33.8692 10.6389L35.7744 9.95208C36.8189 9.57525 37.7675 8.97281 38.5527 8.18763C39.3379 7.40245 39.9403 6.45385 40.3171 5.40933L41.004 3.50415C41.0177 3.4664 41.0427 3.4338 41.0756 3.41076C41.1085 3.38772 41.1477 3.37537 41.1879 3.37537C41.2281 3.37537 41.2673 3.38772 41.3002 3.41076C41.3331 3.4338 41.3581 3.4664 41.3718 3.50415ZM41.3718 35.8586L42.0586 37.7638C42.4355 38.8083 43.0379 39.7569 43.8231 40.5421C44.6083 41.3272 45.5569 41.9297 46.6014 42.3065L48.5066 42.9933C48.5443 43.0071 48.5769 43.0321 48.6 43.065C48.623 43.0979 48.6354 43.1371 48.6354 43.1773C48.6354 43.2174 48.623 43.2566 48.6 43.2895C48.5769 43.3224 48.5443 43.3475 48.5066 43.3612L46.6014 44.048C45.5569 44.4249 44.6083 45.0273 43.8231 45.8125C43.0379 46.5977 42.4355 47.5463 42.0586 48.5908L41.3718 50.496C41.3581 50.5337 41.3331 50.5663 41.3002 50.5893C41.2673 50.6124 41.2281 50.6247 41.1879 50.6247C41.1477 50.6247 41.1085 50.6124 41.0756 50.5893C41.0427 50.5663 41.0177 50.5337 41.004 50.496L40.3171 48.5908C39.9403 47.5463 39.3379 46.5977 38.5527 45.8125C37.7675 45.0273 36.8189 44.4249 35.7744 44.048L33.8692 43.3612C33.8315 43.3475 33.7989 43.3224 33.7758 43.2895C33.7528 43.2566 33.7404 43.2174 33.7404 43.1773C33.7404 43.1371 33.7528 43.0979 33.7758 43.065C33.7989 43.0321 33.8315 43.0071 33.8692 42.9933L35.7744 42.3065C36.8189 41.9297 37.7675 41.3272 38.5527 40.5421C39.3379 39.7569 39.9403 38.8083 40.3171 37.7638L41.004 35.8586C41.0664 35.6865 41.3111 35.6865 41.3718 35.8586Z" fill="white"/>
</svg>
