<svg width="24" height="13" viewBox="0 0 24 13" fill="none" xmlns="http://www.w3.org/2000/svg">
<path d="M23.73 6.019L23.7292 6.01811L18.8306 1.14311C18.4636 0.777911 17.87 0.77927 17.5047 1.1463C17.1395 1.51329 17.1409 2.10686 17.5078 2.47211L20.7968 5.74511H0.942505C0.424724 5.74511 0.00500488 6.16483 0.00500488 6.68261C0.00500488 7.2004 0.424724 7.62011 0.942505 7.62011H20.7967L17.5079 10.8931C17.1409 11.2584 17.1395 11.8519 17.5048 12.2189C17.8701 12.586 18.4637 12.5873 18.8306 12.2221L23.7292 7.34711L23.7301 7.34622C24.0973 6.97975 24.0961 6.38425 23.73 6.019Z" fill="white"/>
</svg>
