<svg width="28" height="29" viewBox="0 0 28 29" fill="none" xmlns="http://www.w3.org/2000/svg">
<g clip-path="url(#clip0_846_2486)">
<path fill-rule="evenodd" clip-rule="evenodd" d="M28.005 14.6826C28.005 6.95186 21.7358 0.682617 14.005 0.682617C6.27425 0.682617 0.00500488 6.95186 0.00500488 14.6826C0.00500488 22.4134 6.27425 28.6826 14.005 28.6826C21.7358 28.6826 28.005 22.4134 28.005 14.6826ZM13.8873 19.3187L17.1031 16.1029H6.63461C6.22762 16.1029 5.88798 15.7633 5.88798 15.3563V14.009C5.88798 13.602 6.22343 13.2623 6.63461 13.2623H17.1031L13.8873 10.0466C13.5966 9.75583 13.5966 9.28148 13.8873 8.99068L14.8399 8.03802C15.1307 7.74733 15.6086 7.75074 15.8959 8.03802L21.9065 14.0486C22.0766 14.2187 22.146 14.457 22.1145 14.6826C22.146 14.9083 22.0766 15.1466 21.9065 15.3167L15.8959 21.3273C15.6086 21.6146 15.1307 21.618 14.8399 21.3273L13.8873 20.3747C13.5966 20.0839 13.5966 19.6095 13.8873 19.3187Z" fill="white"/>
</g>
<defs>
<clipPath id="clip0_846_2486">
<rect width="28" height="28" fill="white" transform="translate(0.00500488 0.682617)"/>
</clipPath>
</defs>
</svg>
