<svg width="55" height="56" viewBox="0 0 55 56" fill="none" xmlns="http://www.w3.org/2000/svg">
<path d="M30.8459 52.0512C30.6528 52.0515 30.4653 51.9856 30.3149 51.8644C30.1645 51.7432 30.0603 51.574 30.0196 51.3852C29.9789 51.1963 30.0042 50.9993 30.0914 50.8269C30.1785 50.6545 30.3221 50.5172 30.4983 50.4379C34.9331 48.4391 38.6236 45.6876 41.4696 42.262C41.5403 42.1767 41.6272 42.1061 41.7252 42.0544C41.8232 42.0026 41.9305 41.9707 42.0408 41.9604C42.1512 41.9501 42.2625 41.9616 42.3684 41.9943C42.4743 42.0271 42.5727 42.0803 42.658 42.151C42.7433 42.2218 42.8139 42.3087 42.8656 42.4067C42.9174 42.5047 42.9493 42.6119 42.9596 42.7223C42.9699 42.8326 42.9584 42.9439 42.9257 43.0498C42.893 43.1557 42.8397 43.2542 42.769 43.3395C39.7568 46.9659 35.8629 49.8709 31.1927 51.9761C31.0838 52.0255 30.9656 52.0511 30.8459 52.0512ZM50.1678 18.1156C50.0569 18.1086 49.9458 18.1236 49.8407 18.1598C49.7357 18.1959 49.6388 18.2524 49.5557 18.3262C49.4726 18.3999 49.4049 18.4893 49.3564 18.5892C49.308 18.6892 49.2798 18.7978 49.2734 18.9087C48.9866 24.1484 48.1766 28.6709 46.8097 32.6112C47.375 32.7378 47.8981 32.9571 48.3706 33.2609C49.805 29.1518 50.6656 24.4437 50.9609 19.0015C50.9671 18.8912 50.9515 18.7808 50.9149 18.6766C50.8784 18.5724 50.8217 18.4764 50.748 18.3941C50.6743 18.3119 50.5852 18.2449 50.4856 18.1971C50.3861 18.1493 50.2781 18.1216 50.1678 18.1156ZM44.1434 7.67837C39.8403 7.02025 35.0478 5.704 30.9894 4.0165C30.888 3.97376 30.7792 3.95142 30.6692 3.95077C30.5592 3.95012 30.4501 3.97116 30.3482 4.01269C30.2464 4.05423 30.1537 4.11544 30.0755 4.19282C29.9973 4.27021 29.9351 4.36225 29.8925 4.46368C29.7069 4.894 29.9094 5.39181 30.3397 5.569C34.55 7.324 39.545 8.69931 44.0253 9.35743C43.969 8.7951 44.009 8.22729 44.1434 7.67837ZM49.0625 5.48462C47.2012 5.48462 45.6875 6.99831 45.6875 8.85962C45.6875 10.7209 47.2012 12.2346 49.0625 12.2346C50.9238 12.2346 52.4375 10.7209 52.4375 8.85962C52.4375 6.99831 50.9238 5.48462 49.0625 5.48462ZM45.6875 34.1721C43.8262 34.1721 42.3125 35.6858 42.3125 37.5471C42.3125 39.4084 43.8262 40.9221 45.6875 40.9221C47.5488 40.9221 49.0625 39.4084 49.0625 37.5471C49.0625 35.6858 47.5488 34.1721 45.6875 34.1721ZM25.0916 52.0512C25.2847 52.0515 25.4722 51.9856 25.6226 51.8644C25.773 51.7432 25.8772 51.574 25.9179 51.3852C25.9586 51.1963 25.9333 50.9993 25.8461 50.8269C25.759 50.6545 25.6154 50.5172 25.4392 50.4379C21.0044 48.4391 17.3139 45.6876 14.4688 42.262C14.398 42.1767 14.3111 42.1061 14.2131 42.0544C14.1151 42.0026 14.0079 41.9707 13.8975 41.9604C13.7872 41.9501 13.6759 41.9616 13.57 41.9943C13.4641 42.0271 13.3656 42.0803 13.2803 42.151C13.195 42.2218 13.1245 42.3087 13.0727 42.4067C13.021 42.5047 12.989 42.6119 12.9787 42.7223C12.9579 42.9451 13.0265 43.1672 13.1694 43.3395C16.1807 46.9651 20.0755 49.8709 24.7456 51.9761C24.8578 52.0267 24.976 52.0512 25.0916 52.0512ZM4.97656 19.0015C5.27188 24.4437 6.1325 29.1518 7.56687 33.2609C8.03938 32.9571 8.5625 32.7378 9.12781 32.6112C7.76094 28.6709 6.95094 24.1484 6.66406 18.9087C6.65772 18.7978 6.62952 18.6892 6.58107 18.5892C6.53263 18.4893 6.4649 18.3999 6.38179 18.3262C6.29867 18.2524 6.20181 18.1959 6.09676 18.1598C5.99171 18.1236 5.88056 18.1086 5.76969 18.1156C5.30563 18.1409 4.95125 18.5374 4.97656 19.0015ZM11.9375 8.85962C11.9375 9.02837 11.9291 9.19712 11.9122 9.35743C16.3925 8.69931 21.3875 7.324 25.5978 5.569C26.0281 5.39181 26.2306 4.894 26.045 4.46368C25.8678 4.04181 25.37 3.83087 24.9481 4.0165C20.8897 5.704 16.0972 7.02025 11.7941 7.67837C11.8869 8.05806 11.9375 8.45462 11.9375 8.85962ZM3.5 8.85962C3.5 10.7209 5.01369 12.2346 6.875 12.2346C8.73631 12.2346 10.25 10.7209 10.25 8.85962C10.25 6.99831 8.73631 5.48462 6.875 5.48462C5.01369 5.48462 3.5 6.99831 3.5 8.85962ZM6.875 37.5471C6.875 39.4084 8.38869 40.9221 10.25 40.9221C12.1113 40.9221 13.625 39.4084 13.625 37.5471C13.625 35.6858 12.1113 34.1721 10.25 34.1721C8.38869 34.1721 6.875 35.6858 6.875 37.5471ZM27.9755 20.6848C27.2064 20.6778 26.4583 20.9356 25.8568 21.4149C25.2553 21.8943 24.837 22.566 24.6722 23.3173C24.3778 24.7128 24.949 26.1126 26.1294 26.8838C26.2854 26.9859 26.4033 27.1368 26.4645 27.313C26.5257 27.4891 26.5269 27.6806 26.4677 27.8575L24.9211 32.4981H31.0172L29.4698 27.8575C29.4107 27.6805 29.412 27.489 29.4733 27.3128C29.5347 27.1366 29.6527 26.9858 29.809 26.8838C30.2799 26.5786 30.6671 26.1604 30.9351 25.6673C31.2032 25.1742 31.3437 24.6219 31.3438 24.0606C31.3438 23.0397 30.8881 22.0846 30.095 21.4399C29.4974 20.9495 28.7486 20.6825 27.9755 20.6848ZM45.1509 16.0247C44.848 27.6407 42.7006 40.4032 29.069 46.9878C28.7239 47.1541 28.3468 47.2368 27.9688 47.2368C27.5907 47.2368 27.2136 47.1541 26.8693 46.9878C13.2369 40.4015 11.0895 27.6398 10.7866 16.0239C10.7714 15.415 10.9771 14.8212 11.3658 14.3523C11.7545 13.8834 12.2999 13.5711 12.9011 13.4732C17.5923 12.7265 22.7291 11.2736 26.9959 9.48653C27.304 9.35669 27.6349 9.28981 27.9692 9.28981C28.3035 9.28981 28.6344 9.35669 28.9424 9.48653C33.2084 11.2736 38.346 12.7265 43.0364 13.4732C43.6377 13.5713 44.183 13.8838 44.5717 14.3528C44.9604 14.8219 45.1662 15.4158 45.1509 16.0247ZM31.2627 27.8988C31.8178 27.4252 32.2634 26.8367 32.5687 26.1741C32.8741 25.5114 33.0319 24.7903 33.0312 24.0606C33.0325 23.3074 32.8651 22.5634 32.5412 21.8833C32.2174 21.2032 31.7454 20.6043 31.1598 20.1304C29.9701 19.1627 28.4117 18.7931 26.8862 19.1112C24.9793 19.5094 23.4252 21.0594 23.0218 22.9671C22.6287 24.8293 23.2716 26.6982 24.6756 27.8988L23.3197 31.964C23.1493 32.477 23.2353 33.0457 23.5517 33.4845C23.8681 33.9232 24.3794 34.1856 24.9203 34.1856H31.0172C31.5581 34.1856 32.0702 33.9241 32.3866 33.4845C32.703 33.0457 32.7891 32.477 32.6178 31.964L31.2627 27.8988Z" fill="#00D8B2"/>
</svg>
