<svg width="55" height="56" viewBox="0 0 55 56" fill="none" xmlns="http://www.w3.org/2000/svg">
<path fill-rule="evenodd" clip-rule="evenodd" d="M38.6829 33.9972L35.637 42.1584C35.2177 43.2822 34.5624 44.3156 33.7585 43.4642C33.5192 43.2108 33.316 42.871 33.3539 42.4977L34.0255 35.8743C34.0272 35.8556 34.0339 35.8377 34.045 35.8226C34.0561 35.8074 34.0712 35.7956 34.0885 35.7884L38.5426 33.8638C38.5615 33.8554 38.5825 33.8528 38.6029 33.8564C38.6233 33.8601 38.6421 33.8697 38.6569 33.8841C38.6881 33.9138 38.698 33.9568 38.6829 33.9972ZM32.907 50.7491V53.0178C32.9076 53.072 32.9294 53.1239 32.9677 53.1622C33.006 53.2005 33.0579 53.2223 33.1121 53.2229H35.642C35.6962 53.2223 35.748 53.2005 35.7863 53.1621C35.8246 53.1238 35.8464 53.072 35.8471 53.0178V50.7491C35.847 50.7212 35.8359 50.6945 35.8162 50.6748C35.7965 50.655 35.7698 50.6439 35.7419 50.6439H33.0123C32.9844 50.6439 32.9576 50.655 32.9379 50.6747C32.9182 50.6944 32.907 50.7212 32.907 50.7491ZM19.0361 50.7491V53.0178C19.0361 53.1293 19.1299 53.2229 19.2412 53.2229H21.7711C21.8253 53.2223 21.8771 53.2005 21.9154 53.1621C21.9537 53.1238 21.9756 53.072 21.9762 53.0178V50.7491C21.9761 50.7212 21.965 50.6945 21.9453 50.6748C21.9256 50.655 21.8989 50.6439 21.871 50.6439H19.1414C19.1135 50.6439 19.0868 50.655 19.067 50.6747C19.0473 50.6944 19.0362 50.7212 19.0361 50.7491ZM53.185 16.93C51.7679 13.5154 43.9573 14.6737 40.0805 15.464C40.0594 15.4681 40.04 15.4786 40.0252 15.4942C40.0104 15.5097 40.0007 15.5295 39.9976 15.5508C39.9941 15.572 39.9972 15.5938 40.0066 15.6132C40.016 15.6325 40.0312 15.6485 40.0501 15.6588C40.4738 15.8969 40.849 16.2126 41.1561 16.5892C41.1679 16.6041 41.1836 16.6154 41.2014 16.6219C41.2192 16.6284 41.2384 16.6299 41.257 16.6262C43.749 16.1601 45.9374 15.9402 47.7032 15.9833C52.5936 16.1027 53.3221 17.9874 49.9441 21.5215C49.0203 22.488 47.8236 23.5176 46.395 24.5797C46.3799 24.5906 46.3681 24.6054 46.3608 24.6224C46.3534 24.6395 46.3508 24.6583 46.3533 24.6767C46.3553 24.6952 46.3622 24.7128 46.3734 24.7277C46.3846 24.7425 46.3996 24.754 46.4168 24.761L47.6441 25.2797C47.68 25.2948 47.7183 25.2899 47.7492 25.2662C49.0069 24.2989 50.0778 23.3568 50.9329 22.4622C52.9475 20.3549 53.8078 18.4306 53.185 16.93ZM45.1975 25.4353C44.7142 25.2905 44.2253 25.225 43.7366 25.239C42.5985 25.2717 41.8665 25.6861 40.9102 26.1675C40.8943 26.1759 40.8764 26.1799 40.8584 26.1791C40.8404 26.1783 40.8229 26.1728 40.8077 26.1631C40.7923 26.1539 40.7795 26.1407 40.7707 26.125C40.7619 26.1092 40.7575 26.0915 40.7577 26.0735V19.9588C40.7577 17.8442 39.0302 16.1166 36.9155 16.1166H17.9677C15.8531 16.1166 14.1256 17.8442 14.1256 19.9588V38.4207C14.1257 38.4451 14.1173 38.4689 14.1017 38.4878C14.0862 38.5066 14.0645 38.5195 14.0405 38.524C12.3861 38.8462 10.8567 39.0635 9.48557 39.1708C5.88193 39.453 3.47569 39.0177 2.95967 37.7744C2.53156 36.743 3.44869 35.1516 5.37908 33.2617C7.14078 31.5368 9.71377 29.6358 12.8812 27.7229C12.8969 27.7138 12.9099 27.7006 12.9188 27.6848C12.9278 27.669 12.9323 27.651 12.9321 27.6329V26.2895C12.9321 26.2506 12.9127 26.2173 12.879 26.1981C12.8453 26.1789 12.8068 26.1792 12.7733 26.199C9.24019 28.287 6.36718 30.3848 4.42231 32.289C2.07569 34.5866 1.0309 36.6903 1.69823 38.2983C2.4701 40.1582 5.3685 40.8643 9.58709 40.5339C12.8287 40.28 17.3425 39.1355 21.5564 37.8266C21.6416 37.8001 21.7286 37.7787 21.8117 37.747C23.1577 37.2316 20.3566 33.6673 19.6545 32.5307C19.6361 32.5006 19.6335 32.4667 19.6473 32.4343C19.6611 32.4019 19.6872 32.3802 19.7217 32.3727C19.7569 32.365 19.7945 32.3682 19.8388 32.3913L23.9646 34.5494C24.8815 35.0289 25.8254 35.3352 26.748 34.8687L42.3666 26.9686C43.2829 26.5051 44.244 26.4779 45.2011 26.8867L47.673 27.9426C47.8902 28.0354 47.8889 28.3393 47.6739 28.4289C36.8339 33.1128 25.8889 38.8778 14.211 41.1058C14.1869 41.1102 14.1651 41.123 14.1495 41.1418C14.1338 41.1607 14.1253 41.1845 14.1255 41.209V45.7912C14.1255 47.9058 15.853 49.6334 17.9676 49.6334H36.9153C39.0298 49.6334 40.7575 47.9059 40.7575 45.7912V32.976C40.7575 32.9331 40.7816 32.8964 40.821 32.8794L48.2137 29.6852C49.526 29.1196 49.5232 27.2487 48.2074 26.6867L46.7054 26.0452L46.7036 26.0444L45.2066 25.4387C45.2036 25.4374 45.2006 25.4363 45.1975 25.4353ZM31.8395 14.8254V7.92222C31.8395 7.89317 31.8499 7.86822 31.8705 7.8477C31.8802 7.83775 31.8918 7.8299 31.9046 7.82462C31.9175 7.81935 31.9313 7.81676 31.9451 7.81703C32.4342 7.81865 32.8415 7.81735 33.2571 7.40177C33.3887 7.27068 33.4931 7.11491 33.5643 6.94338C33.6355 6.77185 33.6721 6.58795 33.6721 6.40223V4.19168C33.6721 3.41225 33.0369 2.7771 32.2576 2.7771H22.6258C21.8464 2.7771 21.2112 3.41225 21.2112 4.19168V6.40223C21.2112 7.18156 21.8464 7.8167 22.6258 7.8167H22.9386C22.9966 7.8167 23.0438 7.86401 23.0438 7.9219V14.8253C23.0438 14.8833 23.0911 14.9304 23.149 14.9304H24.3068C24.3347 14.9304 24.3614 14.9193 24.3812 14.8996C24.4009 14.8799 24.412 14.8531 24.412 14.8253V7.9219C24.412 7.8639 24.4593 7.8167 24.5172 7.8167H30.3658C30.4237 7.8167 30.4709 7.86401 30.4709 7.9219V14.8253C30.4709 14.8833 30.5182 14.9304 30.5761 14.9304H31.734C31.7478 14.9305 31.7615 14.9278 31.7743 14.9225C31.7871 14.9172 31.7987 14.9095 31.8085 14.8998C31.8183 14.89 31.8261 14.8784 31.8314 14.8656C31.8367 14.8529 31.8395 14.8392 31.8395 14.8254ZM24.4982 27.7867C24.4967 27.7856 24.4952 27.7846 24.4937 27.7836C23.5206 27.1652 23.9362 26.4452 25.0825 26.7662L25.0864 26.7671L34.6658 29.0633C34.7096 29.0738 34.7407 29.109 34.7458 29.1538C34.7509 29.1987 34.7285 29.2399 34.688 29.2599L29.9693 31.605C29.9523 31.6137 29.9332 31.6175 29.9142 31.6161C29.8952 31.6146 29.8769 31.6078 29.8615 31.5966L24.4982 27.7867Z" fill="#00D8B2"/>
</svg>
