<svg width="54" height="56" viewBox="0 0 54 56" fill="none" xmlns="http://www.w3.org/2000/svg">
<path fill-rule="evenodd" clip-rule="evenodd" d="M44.6881 37.271L37.5717 26.1156C37.0534 26.1727 36.5312 26.1854 36.0108 26.1537C34.7352 26.0841 33.8948 25.6723 33.2196 25.3422C32.0018 24.7458 31.1208 24.3134 27.6327 26.3242C23.4245 29.4279 21.7804 32.6846 21.957 34.01C22.0047 34.3674 22.1642 34.475 22.3137 34.5326C23.235 34.8888 25.809 34.0403 30.0302 30.4794C31.7815 29.002 35.8723 31.7059 41.4604 35.6873C42.5257 36.4456 43.4456 37.1017 44.0573 37.4819C44.127 37.5264 44.1944 37.5709 44.2611 37.6155C44.4294 37.5376 44.576 37.4193 44.6877 37.2712L44.6881 37.271ZM40.5785 36.9254C41.6648 37.6989 42.6022 38.3671 43.249 38.7701C44.2526 39.4055 44.8355 40.0779 44.9811 40.7678C45.1018 41.3402 44.9378 41.9649 44.4795 42.6754C43.7211 43.325 42.7364 43.5151 41.478 43.2587L33.0907 37.5916C33.0081 37.5346 32.915 37.4946 32.8168 37.4738C32.7186 37.453 32.6172 37.4519 32.5186 37.4705C32.42 37.4891 32.326 37.527 32.2421 37.5821C32.1582 37.6372 32.0861 37.7084 32.0298 37.7916C31.9736 37.8747 31.9344 37.9682 31.9145 38.0666C31.8946 38.165 31.8944 38.2663 31.9138 38.3648C31.9333 38.4632 31.9721 38.5569 32.028 38.6403C32.0838 38.7237 32.1557 38.7952 32.2393 38.8507L40.3743 44.3485C40.2743 45.0427 40.046 45.5298 39.6922 45.7977C39.2833 46.1073 38.6352 46.178 37.7703 46.0128L31.3034 41.7941C31.1345 41.6839 30.9288 41.6452 30.7315 41.6867C30.5342 41.7281 30.3614 41.8463 30.2512 42.0151C30.1409 42.1839 30.1023 42.3896 30.1437 42.587C30.1852 42.7843 30.3033 42.9571 30.4722 43.0673L36.6052 47.0692C36.3333 47.9524 35.9446 48.5247 35.445 48.7726C34.902 49.0431 34.1399 48.966 33.1804 48.5467L29.3635 45.833C29.1991 45.7162 28.995 45.6694 28.7962 45.703C28.5973 45.7366 28.42 45.8478 28.3031 46.0122C28.1862 46.1766 28.1395 46.3806 28.1731 46.5795C28.2067 46.7784 28.3179 46.9557 28.4823 47.0726L31.9055 49.5053C31.5949 50.3006 31.1567 50.8013 30.5977 50.9936C29.6243 51.3304 28.1446 50.8448 26.2988 49.5966C26.7869 48.9216 27.9592 47.11 27.596 45.713C27.3342 44.706 26.5175 43.9651 25.1644 43.5034C25.514 42.1455 25.3344 40.9788 24.6363 40.1618C23.9543 39.3633 22.861 39.005 21.505 39.1212C21.329 37.949 20.6649 37.0734 19.6066 36.6552C18.362 36.1642 16.8207 36.4109 15.662 37.2093C15.1861 36.4784 14.4472 35.9587 13.5985 35.7579C13.0623 35.6299 12.5012 35.6506 11.9758 35.8177C11.4504 35.9848 10.9806 36.292 10.6167 36.7063L10.548 36.7823C10.4305 36.6775 10.3221 36.563 10.2238 36.4401L17.0581 25.7278C18.9395 26.3753 20.8603 25.8994 22.5741 25.4736C24.5821 24.975 25.58 24.8186 26.2004 25.504C22.4865 28.3991 20.1441 31.9156 20.4501 34.211C20.5618 35.0485 21.0292 35.6665 21.7663 35.9512C22.0813 36.068 22.4152 36.1252 22.7511 36.12C24.6657 36.12 27.5394 34.5708 31.0114 31.6422C31.0169 31.6378 31.5824 31.2098 34.5577 32.911C36.5123 34.0289 38.7669 35.6354 40.5787 36.926L40.5785 36.9254ZM15.4753 46.1692L20.0315 39.748C20.0282 38.8908 19.6989 38.327 19.0493 38.071C18.131 37.7081 16.845 38.0471 16.1004 38.8238C15.8249 39.7266 15.0668 41.4863 12.9981 43.9589C13.0436 44.702 13.2512 45.2548 13.6204 45.6026C14.0141 45.974 14.6376 46.1642 15.4761 46.1696L15.4753 46.1692ZM11.8168 43.0004C13.6559 40.8067 14.3518 39.2862 14.614 38.4792C14.5098 38.1759 14.3311 37.9036 14.0944 37.6872C13.8577 37.4709 13.5705 37.3173 13.259 37.2407C12.9885 37.1735 12.7046 37.1825 12.4388 37.2667C12.173 37.3508 11.9357 37.5069 11.7532 37.7176C11.5675 37.9262 11.3702 38.1358 11.1794 38.3379C10.2147 39.3633 9.30354 40.3324 9.40468 41.5068C9.45974 42.1466 9.64884 42.5897 9.96673 42.8234C10.3382 43.0949 10.9751 43.1546 11.8168 43.0004ZM21.2285 40.6888L16.677 47.1035C16.7864 47.6271 16.9955 47.9931 17.3144 48.2136C17.7849 48.5397 18.5794 48.5971 19.6205 48.3843L20.8387 46.9057L23.5305 43.637C23.9256 42.554 23.9095 41.6512 23.4803 41.1494C23.0724 40.6724 22.278 40.5117 21.2285 40.6888ZM24.4769 44.8798L22.0128 47.8715C21.6363 48.3301 21.2592 48.7881 20.8815 49.2457C21.2076 50.1702 21.8318 50.557 22.9126 50.5232C23.307 50.5113 24.1729 49.9009 25.0001 48.796C25.8804 47.6195 26.2363 46.5266 26.1243 46.0954C25.9885 45.574 25.4348 45.1655 24.4769 44.8798ZM7.51922 37.8523L16.4102 23.9147C16.4985 23.7744 16.5279 23.6049 16.4921 23.443C16.4563 23.2812 16.3582 23.1399 16.219 23.0499L11.854 20.2655C11.7847 20.2211 11.7073 20.1908 11.6263 20.1764C11.5453 20.162 11.4622 20.1637 11.3819 20.1815C11.3015 20.1992 11.2255 20.2327 11.1581 20.2799C11.0907 20.3271 11.0333 20.3871 10.9891 20.4566L2.09802 34.3945C2.00886 34.5346 1.97893 34.7044 2.0148 34.8665C2.05067 35.0286 2.14941 35.1699 2.28934 35.2593L6.65427 38.0437C6.79468 38.1317 6.96405 38.161 7.12585 38.1252C7.28765 38.0894 7.42889 37.9915 7.51911 37.8525L7.51922 37.8523ZM13.4403 24.0331C13.3309 24.2025 13.1586 24.3215 12.9614 24.3638C12.7642 24.4062 12.5583 24.3685 12.3889 24.259C12.2195 24.1495 12.1005 23.9772 12.0582 23.78C12.0158 23.5829 12.0535 23.3769 12.163 23.2075L12.3072 22.9848C12.3611 22.9003 12.4312 22.8273 12.5134 22.77C12.5957 22.7127 12.6884 22.6723 12.7864 22.6509C12.8843 22.6296 12.9855 22.6279 13.0841 22.6458C13.1827 22.6637 13.2768 22.7009 13.361 22.7553C13.4451 22.8097 13.5177 22.8803 13.5745 22.9628C13.6314 23.0454 13.6713 23.1383 13.6921 23.2364C13.7128 23.3344 13.714 23.4356 13.6955 23.5341C13.6771 23.6327 13.6393 23.7265 13.5844 23.8104L13.4403 24.0331ZM21.7075 20.4287L26.4362 17.9608C26.6192 17.864 26.8231 17.8133 27.0302 17.8133C27.2373 17.8133 27.4412 17.864 27.6242 17.9608L32.3528 20.4287L31.2396 15.4686C31.1909 15.2552 31.1979 15.0328 31.2601 14.823C31.3223 14.6131 31.4374 14.4228 31.5945 14.2703L35.2209 10.7202L30.378 10.2182C30.1639 10.1964 29.9588 10.1209 29.7817 9.99885C29.6045 9.87676 29.461 9.71196 29.3644 9.51969L27.0301 4.90259L24.6959 9.5198C24.5993 9.71207 24.4558 9.87688 24.2786 9.99896C24.1014 10.121 23.8963 10.1965 23.6822 10.2182L18.8396 10.7202L22.4661 14.2703C22.6231 14.4228 22.7382 14.6131 22.8003 14.823C22.8624 15.0329 22.8695 15.2552 22.8207 15.4686L21.7075 20.4287ZM38.2144 24.296C38.1253 24.1557 38.0953 23.9859 38.1312 23.8236C38.167 23.6614 38.2657 23.5199 38.4056 23.4303L42.7706 20.6459C42.9107 20.5568 43.0804 20.527 43.2425 20.5628C43.4046 20.5987 43.5459 20.6974 43.6354 20.8372L52.5264 34.7747C52.6156 34.9148 52.6456 35.0845 52.6098 35.2467C52.5739 35.4088 52.4752 35.5501 52.3353 35.6396L47.9706 38.4248C47.8302 38.5128 47.6608 38.542 47.499 38.5063C47.3373 38.4705 47.196 38.3726 47.1058 38.2337L38.2147 24.296H38.2144ZM41.5914 24.3819C41.4642 24.382 41.3389 24.3501 41.2272 24.2892C41.1155 24.2282 41.0209 24.1402 40.9521 24.0331L40.8079 23.8104C40.6984 23.641 40.6607 23.4351 40.7031 23.2379C40.7455 23.0407 40.8644 22.8684 41.0338 22.759C41.2032 22.6495 41.4091 22.6118 41.6063 22.6542C41.8035 22.6965 41.9758 22.8155 42.0852 22.9849L42.2293 23.2075C42.3032 23.3224 42.3449 23.4551 42.35 23.5916C42.3551 23.7282 42.3233 23.8636 42.2581 23.9836C42.1929 24.1037 42.0966 24.204 41.9793 24.2741C41.862 24.3442 41.7281 24.3814 41.5914 24.3819Z" fill="#00D8B2"/>
</svg>
