<svg width="55" height="54" viewBox="0 0 55 54" fill="none" xmlns="http://www.w3.org/2000/svg">
<g clip-path="url(#clip0_852_1730)">
<path d="M53.2595 18.4812C52.711 16.6534 51.0731 15.122 49.5986 15.0598C48.9646 15.0351 48.3295 15.0637 47.7002 15.1452C45.1204 6.40182 37.0415 0.00408936 27.4998 0.00408936C17.958 0.00408936 9.87911 6.40182 7.29618 15.1452C6.66686 15.0637 6.03183 15.0351 5.39774 15.0598C3.92118 15.122 2.28536 16.6534 1.73692 18.4812C1.26231 19.558 0.351062 26.0011 0.520866 28.1263C0.351062 30.2515 1.25915 36.6946 1.74009 37.7714C2.29274 39.5992 3.92645 41.1295 5.40091 41.1928C6.62234 41.2308 7.8427 41.0886 9.0227 40.7709C10.2027 40.4707 11.3425 40.0302 12.4177 39.4589C13.6939 38.7438 14.5577 37.0447 14.5566 35.585C14.4923 34.6791 14.2719 29.7262 14.3288 28.1263C14.2719 26.5263 14.4923 21.5735 14.5566 20.6675C14.5566 19.2078 13.6939 17.5035 12.4177 16.7937L12.1309 16.646C14.0736 9.9635 20.2277 5.06659 27.4998 5.06659C34.7718 5.06659 40.9259 9.9635 42.8676 16.646L42.5807 16.7937C41.3046 17.5045 40.4408 19.2078 40.4418 20.6686C40.5062 21.5746 40.7266 26.5274 40.6697 28.1273C40.7266 29.7273 40.5062 34.6801 40.4418 35.5861C40.4418 37.0458 41.3046 38.7449 42.5807 39.4599L42.8191 39.5833C41.8084 41.6862 40.3361 43.5339 38.512 44.9886C36.6878 46.4433 34.5589 47.4675 32.2838 47.985C31.8163 47.2198 31.1023 46.6365 30.2593 46.3308C29.4164 46.0252 28.4945 46.0154 27.6452 46.303C26.7959 46.5907 26.0697 47.1587 25.5859 47.9137C25.1022 48.6687 24.8897 49.5659 24.9833 50.4576C25.077 51.3494 25.4712 52.1828 26.1012 52.8209C26.7312 53.459 27.5595 53.8638 28.4501 53.9688C29.3406 54.0737 30.2403 53.8727 31.0015 53.3986C31.7626 52.9245 32.3398 52.2056 32.6382 51.36C38.5708 50.1587 43.5015 46.1477 45.9863 40.7762C47.1635 41.0914 48.3807 41.2315 49.5986 41.1917C51.0752 41.1295 52.711 39.5981 53.2595 37.7703C53.7372 36.6935 54.6485 30.2504 54.4787 28.1252C54.6485 26.0011 53.7362 19.558 53.2595 18.4812Z" fill="#00D8B2"/>
<path d="M25.4463 27.5884C25.8148 27.2242 26.1102 26.7928 26.3164 26.3175C26.5126 25.8576 26.6103 25.2789 26.6096 24.5814C26.6096 23.6364 26.4011 22.8053 25.9842 22.0882C25.578 21.3815 24.984 20.8011 24.2682 20.4112C23.5103 20.0026 22.6601 19.7956 21.7992 19.81C20.7951 19.81 19.9162 20.0023 19.1625 20.3869C18.1858 20.8674 17.4307 21.7043 17.0531 22.7252C16.9791 22.9275 16.955 23.1448 16.9829 23.3584C17.0108 23.5721 17.0899 23.7758 17.2134 23.9523C17.3369 24.1289 17.5012 24.273 17.6924 24.3724C17.8835 24.4718 18.0959 24.5236 18.3113 24.5234H18.3978C18.668 24.5199 18.9309 24.4359 19.1532 24.2823C19.3754 24.1286 19.5468 23.9122 19.6455 23.6607C19.6785 23.5827 19.7158 23.5067 19.7573 23.4329C19.9467 23.0969 20.2214 22.8167 20.5536 22.6208C20.914 22.411 21.3253 22.3045 21.7422 22.3128C22.1365 22.3038 22.5255 22.4038 22.8665 22.6018C23.1813 22.7922 23.437 23.0665 23.6048 23.3939C23.7858 23.7492 23.8768 24.1437 23.8695 24.5424C23.8582 24.8826 23.7641 25.215 23.5953 25.5106C23.4132 25.8566 23.1003 26.2246 22.6566 26.6149L17.2862 31.381C17.1179 31.5304 16.9832 31.7137 16.891 31.919C16.7989 32.1243 16.7513 32.3467 16.7514 32.5717C16.7506 32.7815 16.7913 32.9893 16.8711 33.1833C16.9509 33.3773 17.0683 33.5536 17.2165 33.702C17.3647 33.8504 17.5409 33.968 17.7347 34.0481C17.9286 34.1282 18.1364 34.1691 18.3461 34.1685H25.3588C25.6905 34.1685 26.0087 34.0368 26.2432 33.8022C26.4778 33.5676 26.6096 33.2494 26.6096 32.9177C26.6097 32.7533 26.5775 32.5906 26.5147 32.4387C26.4519 32.2868 26.3598 32.1488 26.2436 32.0325C26.1274 31.9163 25.9895 31.824 25.8377 31.7611C25.6858 31.6982 25.5231 31.6658 25.3588 31.6658H20.8848L24.0288 28.9088C24.5899 28.4159 25.0624 27.9758 25.4463 27.5884ZM36.992 29.51V27.3384C36.9917 26.9805 36.8493 26.6374 36.5962 26.3845C36.343 26.1315 35.9998 25.9894 35.642 25.9894C35.2842 25.9894 34.9411 26.1316 34.6881 26.3845C34.4351 26.6375 34.293 26.9806 34.293 27.3384V29.51H31.2249L34.7349 22.0713C34.8341 21.861 34.8785 21.6291 34.8641 21.3971C34.8497 21.1651 34.7768 20.9405 34.6523 20.7441C34.5279 20.5478 34.3558 20.3861 34.1521 20.274C33.9484 20.162 33.7197 20.1032 33.4872 20.1032C33.2258 20.1033 32.9698 20.1777 32.7491 20.3178C32.5283 20.4578 32.352 20.6578 32.2406 20.8943L28.3688 29.0987C28.241 29.3694 28.1747 29.6651 28.1748 29.9646C28.1748 30.5025 28.3884 31.0183 28.7688 31.3987C29.1492 31.779 29.665 31.9927 30.2029 31.9927H34.2951V32.8365C34.2951 33.1942 34.4372 33.5374 34.6902 33.7903C34.9432 34.0433 35.2863 34.1854 35.6441 34.1854C36.0019 34.1849 36.3449 34.0422 36.5977 33.7889C36.8504 33.5356 36.9922 33.1922 36.992 32.8344V31.9906H37.0014C37.3307 31.9906 37.6464 31.8598 37.8792 31.627C38.112 31.3942 38.2428 31.0785 38.2428 30.7492C38.2428 30.42 38.112 30.1043 37.8792 29.8715C37.6464 29.6387 37.3307 29.5079 37.0014 29.5079L36.992 29.51Z" fill="#00D8B2"/>
</g>
<defs>
<clipPath id="clip0_852_1730">
<rect width="54" height="53.9918" fill="white" transform="translate(0.5 0.00408936)"/>
</clipPath>
</defs>
</svg>
