<svg width="55" height="54" viewBox="0 0 55 54" fill="none" xmlns="http://www.w3.org/2000/svg">
<g clip-path="url(#clip0_852_1721)">
<path d="M16.4258 9.49219H21.1719V41.2383H33.8281V9.49219H38.5742L27.5 0L16.4258 9.49219ZM44.9023 28.582H48.0664L40.1562 19.0914L36.9922 22.8878V41.2383H44.9023V28.582ZM18.0078 41.2383V22.8878L14.8438 19.0914L6.93359 28.582H10.0977V41.2383H18.0078ZM37.1793 44.4023L41.9246 54H54.5L46.4851 44.4023H37.1793ZM21.3592 44.4023L16.6133 54H38.3867L33.6413 44.4023H21.3592ZM17.8212 44.4023H8.51489L0.5 54H13.0756L17.8212 44.4023Z" fill="#00D8B2"/>
</g>
<defs>
<clipPath id="clip0_852_1721">
<rect width="54" height="54" fill="white" transform="translate(0.5)"/>
</clipPath>
</defs>
</svg>
