<svg width="54" height="54" viewBox="0 0 54 54" fill="none" xmlns="http://www.w3.org/2000/svg">
<path d="M22.068 12.5473L23.423 16.3105C24.1665 18.3734 25.356 20.247 26.9066 21.7976C28.4572 23.3482 30.3308 24.5377 32.3938 25.2812L36.1569 26.6363C36.2312 26.6635 36.2953 26.7129 36.3407 26.7778C36.386 26.8427 36.4103 26.9199 36.4103 26.9991C36.4103 27.0782 36.386 27.1555 36.3407 27.2204C36.2953 27.2852 36.2312 27.3347 36.1569 27.3619L32.3938 28.717C30.3308 29.4605 28.4572 30.65 26.9066 32.2006C25.356 33.7512 24.1665 35.6247 23.423 37.6877L22.068 41.4508C22.0407 41.5251 21.9913 41.5893 21.9264 41.6346C21.8615 41.6799 21.7843 41.7042 21.7051 41.7042C21.626 41.7042 21.5488 41.6799 21.4839 41.6346C21.419 41.5893 21.3696 41.5251 21.3423 41.4508L19.9873 37.6877C19.2437 35.6247 18.0543 33.7512 16.5037 32.2006C14.9531 30.65 13.0795 29.4605 11.0165 28.717L7.25339 27.3619C7.17909 27.3347 7.11494 27.2852 7.06962 27.2204C7.0243 27.1555 7 27.0782 7 26.9991C7 26.9199 7.0243 26.8427 7.06962 26.7778C7.11494 26.7129 7.17909 26.6635 7.25339 26.6363L11.0165 25.2812C13.0795 24.5377 14.9531 23.3482 16.5037 21.7976C18.0543 20.247 19.2437 18.3734 19.9873 16.3105L21.3423 12.5473C21.3688 12.4723 21.4179 12.4073 21.4829 12.3613C21.5479 12.3153 21.6255 12.2906 21.7051 12.2906C21.7847 12.2906 21.8624 12.3153 21.9274 12.3613C21.9923 12.4073 22.0415 12.4723 22.068 12.5473ZM39.0071 3.50402L39.6939 5.40921C40.0707 6.45373 40.6732 7.40233 41.4583 8.18751C42.2435 8.97269 43.1921 9.57513 44.2366 9.95196L46.1418 10.6388C46.1796 10.6525 46.2122 10.6775 46.2352 10.7104C46.2583 10.7433 46.2706 10.7825 46.2706 10.8227C46.2706 10.8629 46.2583 10.9021 46.2352 10.935C46.2122 10.9679 46.1796 10.9929 46.1418 11.0066L44.2366 11.6935C43.1921 12.0703 42.2435 12.6727 41.4583 13.4579C40.6732 14.2431 40.0707 15.1917 39.6939 16.2362L39.0071 18.1414C38.9933 18.1791 38.9683 18.2117 38.9354 18.2348C38.9025 18.2578 38.8633 18.2702 38.8231 18.2702C38.783 18.2702 38.7438 18.2578 38.7109 18.2348C38.678 18.2117 38.6529 18.1791 38.6392 18.1414L37.9524 16.2362C37.5756 15.1917 36.9731 14.2431 36.1879 13.4579C35.4028 12.6727 34.4542 12.0703 33.4096 11.6935L31.5045 11.0066C31.4667 10.9929 31.4341 10.9679 31.4111 10.935C31.388 10.9021 31.3757 10.8629 31.3757 10.8227C31.3757 10.7825 31.388 10.7433 31.4111 10.7104C31.4341 10.6775 31.4667 10.6525 31.5045 10.6388L33.4096 9.95196C34.4542 9.57513 35.4028 8.97269 36.1879 8.18751C36.9731 7.40233 37.5756 6.45373 37.9524 5.40921L38.6392 3.50402C38.6529 3.46628 38.678 3.43368 38.7109 3.41064C38.7438 3.3876 38.783 3.37524 38.8231 3.37524C38.8633 3.37524 38.9025 3.3876 38.9354 3.41064C38.9683 3.43368 38.9933 3.46628 39.0071 3.50402ZM39.0071 35.8585L39.6939 37.7636C40.0707 38.8082 40.6732 39.7568 41.4583 40.5419C42.2435 41.3271 43.1921 41.9296 44.2366 42.3064L46.1418 42.9932C46.1796 43.007 46.2122 43.032 46.2352 43.0649C46.2583 43.0978 46.2706 43.137 46.2706 43.1771C46.2706 43.2173 46.2583 43.2565 46.2352 43.2894C46.2122 43.3223 46.1796 43.3473 46.1418 43.3611L44.2366 44.0479C43.1921 44.4247 42.2435 45.0272 41.4583 45.8124C40.6732 46.5975 40.0707 47.5461 39.6939 48.5906L39.0071 50.4958C38.9933 50.5336 38.9683 50.5662 38.9354 50.5892C38.9025 50.6123 38.8633 50.6246 38.8231 50.6246C38.783 50.6246 38.7438 50.6123 38.7109 50.5892C38.678 50.5662 38.6529 50.5336 38.6392 50.4958L37.9524 48.5906C37.5756 47.5461 36.9731 46.5975 36.1879 45.8124C35.4028 45.0272 34.4542 44.4247 33.4096 44.0479L31.5045 43.3611C31.4667 43.3473 31.4341 43.3223 31.4111 43.2894C31.388 43.2565 31.3757 43.2173 31.3757 43.1771C31.3757 43.137 31.388 43.0978 31.4111 43.0649C31.4341 43.032 31.4667 43.007 31.5045 42.9932L33.4096 42.3064C34.4542 41.9296 35.4028 41.3271 36.1879 40.5419C36.9731 39.7568 37.5756 38.8082 37.9524 37.7636L38.6392 35.8585C38.7016 35.6863 38.9463 35.6863 39.0071 35.8585Z" fill="#00D8B2"/>
</svg>
